<svg width="372" height="243" viewBox="0 0 372 243" fill="none" xmlns="http://www.w3.org/2000/svg">
<ellipse opacity="0.5" cx="186" cy="214" rx="186" ry="7" fill="url(#paint0_radial)"/>
<path d="M348.76 151.972H328.994V186H295.078V151.972H225V127.826L296.987 21.8105H328.994V125.019H348.76V151.972ZM295.078 125.019V97.167C295.078 92.5251 295.265 85.7868 295.64 76.9521C296.014 68.1175 296.314 62.9889 296.538 61.5664H295.64C292.87 67.7057 289.538 73.6953 285.645 79.5352L255.547 125.019H295.078Z" fill="url(#paint1_linear)"/>
<path d="M145.76 151.972H114.994V186H81.0781V151.972H11V127.826L82.9873 21.8105H114.994V125.019H145.76V151.972ZM81.0781 125.019V97.167C81.0781 92.5251 81.2653 85.7868 81.6396 76.9521C82.014 68.1175 82.3135 62.9889 82.5381 61.5664H81.6396C78.8695 67.7057 75.5378 73.6953 71.6445 79.5352L41.5469 125.019H81.0781Z" fill="url(#paint2_linear)"/>
<path d="M204.065 203.815L184.852 185.169L166.063 203.828L184.78 242.993L204.065 203.815Z" fill="#EB5440"/>
<path d="M184.988 77.4476C177.951 77.45 171.845 83.0481 171.835 90.5094C171.827 97.5043 177.449 103.565 184.956 103.562C191.993 103.56 198.099 97.9616 198.109 90.5003C198.117 83.5053 192.495 77.445 184.988 77.4476Z" fill="url(#paint3_linear)"/>
<path d="M201.801 144.125L184.933 127.343L168.022 144.137C167.086 141.805 155.864 111.498 155.889 91.9119C155.922 65.3311 182.683 50.3993 185.03 49.4659C186.906 50.3979 214.098 65.3111 214.065 91.8918C214.041 111.478 202.743 141.793 201.801 144.125ZM185.068 19.1544C180.844 21.0212 128.732 48.5526 128.677 92.3876C128.63 129.694 159.054 186.576 159.054 186.576L184.421 161.385L209.724 186.558C209.724 186.558 240.291 129.655 240.338 92.3491C241.331 48.5138 189.288 21.0183 185.068 19.1544Z" fill="url(#paint4_linear)"/>
<path d="M241.436 -3.53567e-05L222.168 19.1289L241.382 38.25L260.65 19.121L241.436 -3.53567e-05Z" fill="#D6B298"/>
<defs>
<radialGradient id="paint0_radial" cx="0" cy="0" r="1" gradientUnits="userSpaceOnUse" gradientTransform="translate(186 214) rotate(90) scale(7 186)">
<stop stop-color="#C4C4C4"/>
<stop offset="1" stop-color="#C4C4C4" stop-opacity="0"/>
</radialGradient>
<linearGradient id="paint1_linear" x1="278.491" y1="151.441" x2="278.491" y2="51.0621" gradientUnits="userSpaceOnUse">
<stop stop-color="#CA9971"/>
<stop offset="1" stop-color="#D7B398"/>
</linearGradient>
<linearGradient id="paint2_linear" x1="64.4913" y1="151.441" x2="64.4913" y2="51.0621" gradientUnits="userSpaceOnUse">
<stop stop-color="#CA9971"/>
<stop offset="1" stop-color="#D7B398"/>
</linearGradient>
<linearGradient id="paint3_linear" x1="184.988" y1="77.4476" x2="184.997" y2="103.562" gradientUnits="userSpaceOnUse">
<stop stop-color="#D7B398"/>
<stop offset="1" stop-color="#D4AF92"/>
</linearGradient>
<linearGradient id="paint4_linear" x1="184.605" y1="19.1546" x2="184.663" y2="186.567" gradientUnits="userSpaceOnUse">
<stop stop-color="#D7B398"/>
<stop offset="1" stop-color="#C69972"/>
</linearGradient>
</defs>
</svg>
