<svg width="18" height="19" viewBox="0 0 18 19" fill="none" xmlns="http://www.w3.org/2000/svg">
<path d="M15.1037 6.1001H2.76296C1.78931 6.1001 1 6.86121 1 7.8001V16.3001C1 17.239 1.78931 18.0001 2.76296 18.0001H15.1037C16.0774 18.0001 16.8667 17.239 16.8667 16.3001V7.8001C16.8667 6.86121 16.0774 6.1001 15.1037 6.1001Z" stroke="white" stroke-width="2" stroke-miterlimit="10" stroke-linecap="square"/>
<path d="M8.93319 12.9C9.90685 12.9 10.6962 12.1389 10.6962 11.2C10.6962 10.2611 9.90685 9.5 8.93319 9.5C7.95953 9.5 7.17023 10.2611 7.17023 11.2C7.17023 12.1389 7.95953 12.9 8.93319 12.9Z" stroke="white" stroke-width="2" stroke-miterlimit="10" stroke-linecap="square"/>
<path d="M8.93335 12.8999V14.5999" stroke="white" stroke-width="2" stroke-miterlimit="10" stroke-linecap="square"/>
<path d="M13.3356 6.1V4.18889C13.3394 3.91172 13.3407 3.46839 13.3407 2.99949C13.3407 1.89663 12.4431 1.00622 11.3402 1.00719C10.475 1.00795 9.54195 1.00758 9.01883 1.0037H8.93073C8.39958 0.999877 7.42721 0.999567 6.53092 1.00035C5.4243 1.00131 4.53144 1.90243 4.53114 3.00905C4.53102 3.44751 4.52965 3.85948 4.52588 4.12518V6.1" stroke="white" stroke-width="2" stroke-miterlimit="10"/>
</svg>
