<svg width="475" height="57" viewBox="0 0 475 57" fill="none" xmlns="http://www.w3.org/2000/svg">
<path d="M69.7623 21.0207H71.6442L74.6014 25.5675H77.5585L73.7276 19.7687L77.4913 14.3652H74.6686L71.7114 18.9121H69.7623V14.3652H67.2084V25.5675H69.7623V21.0207Z" fill="black"/>
<path d="M86.7661 23.5249C87.1693 22.8659 87.3709 22.1411 87.3709 21.2844C87.3709 20.4278 87.1693 19.637 86.7661 19.044C86.3628 18.385 85.7579 17.8578 85.0186 17.4624C84.2793 17.0671 83.4729 16.8694 82.5319 16.8694C81.591 16.8694 80.7845 17.0671 80.0452 17.4624C79.3059 17.8578 78.7011 18.385 78.2978 19.044C77.8946 19.7029 77.6929 20.4278 77.6929 21.2844C77.6929 22.1411 77.8946 22.9318 78.2978 23.5249C78.7011 24.1838 79.3059 24.711 80.0452 25.1064C80.7845 25.5018 81.591 25.6994 82.5319 25.6994C83.4729 25.6994 84.2793 25.5018 85.0186 25.1064C85.8251 24.711 86.3628 24.1838 86.7661 23.5249ZM84.2121 22.9318C83.8089 23.3931 83.204 23.5249 82.5991 23.5249C81.9943 23.5249 81.3894 23.3272 80.9861 22.9318C80.5829 22.4705 80.3813 21.9434 80.3813 21.1526C80.3813 20.4278 80.5829 19.8347 80.9861 19.3734C81.3894 18.9122 81.9943 18.7804 82.5991 18.7804C83.204 18.7804 83.8089 18.9781 84.2121 19.3734C84.6154 19.8347 84.817 20.3619 84.817 21.1526C84.817 21.9434 84.6154 22.5364 84.2121 22.9318Z" fill="black"/>
<path d="M91.6051 24.6451C92.21 25.304 93.0837 25.6335 94.2263 25.6335C95.0328 25.6335 95.772 25.4358 96.4441 25.0405C97.1162 24.711 97.6539 24.1179 97.9899 23.5249C98.3932 22.8659 98.5948 22.141 98.5948 21.2185C98.5948 20.296 98.3932 19.5711 97.9899 18.9121C97.5867 18.2532 97.049 17.726 96.4441 17.3965C95.772 17.0671 95.0328 16.8035 94.2263 16.8035C93.0165 16.8035 92.0756 17.1988 91.4707 17.9237V16.9353H89.1184V28.6647H91.6723V24.6451H91.6051ZM92.2772 19.5052C92.6805 19.0439 93.2853 18.9121 93.8902 18.9121C94.4951 18.9121 95.1 19.1098 95.5032 19.5052C95.9065 19.9665 96.1081 20.4936 96.1081 21.2844C96.1081 22.0092 95.9065 22.6023 95.5032 23.0636C95.1 23.5249 94.4951 23.6566 93.8902 23.6566C93.2853 23.6566 92.6805 23.459 92.2772 23.0636C91.874 22.6023 91.6723 22.0751 91.6723 21.2844C91.6051 20.5595 91.8067 19.9665 92.2772 19.5052Z" fill="black"/>
<path d="M106.593 25.5677H109.147V16.9353H100.477V25.5677H102.963V18.9781H106.593V25.5677Z" fill="black"/>
<path d="M113.179 25.1064C113.918 25.5018 114.725 25.6994 115.666 25.6994C116.607 25.6994 117.413 25.5018 118.152 25.1064C118.892 24.711 119.429 24.1838 119.9 23.5249C120.303 22.8659 120.505 22.1411 120.505 21.2844C120.505 20.4278 120.303 19.637 119.9 19.044C119.497 18.385 118.892 17.8578 118.152 17.4624C117.413 17.0671 116.607 16.8694 115.666 16.8694C114.725 16.8694 113.918 17.0671 113.179 17.4624C112.44 17.8578 111.835 18.385 111.432 19.044C111.028 19.7029 110.827 20.4278 110.827 21.2844C110.827 22.1411 111.028 22.9318 111.432 23.5249C111.902 24.1838 112.44 24.711 113.179 25.1064ZM114.053 19.5052C114.456 19.044 115.061 18.9122 115.666 18.9122C116.271 18.9122 116.875 19.1098 117.279 19.5052C117.682 19.9665 117.884 20.4937 117.884 21.2844C117.884 22.0093 117.682 22.6023 117.279 23.0636C116.875 23.5249 116.271 23.6567 115.666 23.6567C115.061 23.6567 114.456 23.459 114.053 23.0636C113.649 22.6023 113.448 22.0752 113.448 21.2844C113.448 20.5596 113.649 19.9665 114.053 19.5052Z" fill="black"/>
<path d="M131.191 18.9781C130.788 18.3191 130.25 17.7919 129.645 17.4624C128.973 17.133 128.234 16.8694 127.427 16.8694C126.217 16.8694 125.277 17.2648 124.672 17.9896V17.0012H122.252V28.7307H124.806V24.711C125.411 25.37 126.285 25.6994 127.427 25.6994C128.234 25.6994 128.973 25.5018 129.645 25.1064C130.317 24.7769 130.855 24.1838 131.191 23.5908C131.594 22.9318 131.796 22.207 131.796 21.2844C131.729 20.3619 131.594 19.5711 131.191 18.9781ZM128.57 22.9318C128.166 23.3931 127.562 23.5249 126.957 23.5249C126.352 23.5249 125.747 23.3272 125.344 22.9318C124.94 22.4705 124.739 21.9434 124.739 21.1526C124.739 20.4278 124.94 19.8347 125.344 19.3734C125.747 18.9122 126.352 18.7804 126.957 18.7804C127.562 18.7804 128.166 18.9781 128.57 19.3734C128.973 19.8347 129.175 20.3619 129.175 21.1526C129.242 21.9434 128.973 22.5364 128.57 22.9318Z" fill="black"/>
<path d="M136.769 16.8694C136.097 16.8694 135.358 17.0012 134.686 17.133C134.014 17.2648 133.409 17.5942 132.938 17.9237L133.879 19.7029C134.148 19.5052 134.551 19.2416 135.022 19.1098C135.492 18.9122 135.963 18.9122 136.433 18.9122C137.105 18.9122 137.576 19.1098 137.912 19.3734C138.248 19.637 138.449 20.0983 138.449 20.6255H136.433C135.156 20.6255 134.215 20.8231 133.61 21.2844C133.005 21.7457 132.669 22.3387 132.669 23.1295C132.669 23.6567 132.804 24.1179 133.073 24.5133C133.342 24.9087 133.678 25.1723 134.215 25.4359C134.753 25.6994 135.291 25.7653 135.963 25.7653C137.307 25.7653 138.181 25.37 138.584 24.5792V25.6335H140.936V20.6914C140.936 19.3734 140.6 18.5168 139.861 17.7919C139.189 17.133 138.181 16.8694 136.769 16.8694ZM138.449 22.8659C138.315 23.2613 138.046 23.5249 137.777 23.7226C137.441 23.9203 137.038 23.9862 136.635 23.9862C136.164 23.9862 135.828 23.8544 135.627 23.7226C135.425 23.5249 135.223 23.2613 135.223 22.9977C135.223 22.3388 135.761 22.0093 136.769 22.0093H138.517V22.8659H138.449Z" fill="black"/>
<path d="M153.101 27.4128V23.5249H151.824V16.9353H149.27V23.5249H145.775V16.9353H143.221V25.5677H150.681V27.4128H153.101Z" fill="black"/>
<path d="M161.233 20.4278V25.5677H163.787V16.9353H161.502L157.201 22.0752V16.9353H154.714V25.5677H156.999L161.233 20.4278Z" fill="black"/>
<path d="M166.744 17.726C166.005 18.3191 165.669 19.044 165.669 20.0324C165.669 20.6255 165.87 21.2185 166.139 21.6139C166.475 22.0752 166.946 22.4046 167.551 22.6023L165.534 25.4359H168.223L169.903 22.9977H171.718V25.4359H173.935V16.8694H169.701C168.492 16.9353 167.483 17.2648 166.744 17.726ZM171.718 18.9781V21.4162H169.836C169.298 21.4162 168.895 21.2844 168.626 21.1526C168.357 21.0208 168.223 20.6255 168.223 20.1642C168.223 19.7029 168.357 19.4393 168.626 19.2416C168.895 19.044 169.298 18.9781 169.836 18.9781H171.718Z" fill="black"/>
<path d="M188.452 17.3306C187.78 17.0011 187.041 16.7375 186.235 16.7375C185.025 16.7375 184.084 17.1329 183.479 17.8578V16.8693H181.06V28.5988H183.613V24.5792C184.218 25.2381 185.092 25.5676 186.235 25.5676C187.041 25.5676 187.78 25.3699 188.452 24.9745C189.125 24.6451 189.662 24.052 189.998 23.4589C190.401 22.8 190.603 22.0751 190.603 21.1526C190.603 20.23 190.401 19.5052 189.998 18.8462C189.595 18.2532 189.125 17.726 188.452 17.3306ZM187.377 22.9318C186.974 23.393 186.369 23.5248 185.764 23.5248C185.159 23.5248 184.554 23.3271 184.151 22.9318C183.748 22.4705 183.546 21.9433 183.546 21.1526C183.546 20.4277 183.748 19.8347 184.151 19.3734C184.554 18.9121 185.159 18.7803 185.764 18.7803C186.369 18.7803 186.974 18.978 187.377 19.3734C187.78 19.8347 187.982 20.3618 187.982 21.1526C187.982 21.9433 187.848 22.5364 187.377 22.9318Z" fill="black"/>
<path d="M195.644 16.8694C194.972 16.8694 194.232 17.0012 193.56 17.133C192.888 17.3307 192.283 17.5942 191.813 17.9237L192.754 19.7029C193.023 19.5052 193.426 19.2416 193.896 19.1098C194.367 18.9122 194.837 18.9122 195.308 18.9122C195.98 18.9122 196.45 19.1098 196.786 19.3734C197.122 19.637 197.324 20.0983 197.324 20.6255H195.308C194.031 20.6255 193.09 20.8231 192.485 21.2844C191.88 21.7457 191.544 22.3387 191.544 23.1295C191.544 23.6567 191.678 24.1179 191.947 24.5133C192.216 24.9087 192.552 25.1723 193.09 25.4359C193.628 25.6994 194.165 25.7653 194.837 25.7653C196.181 25.7653 197.055 25.37 197.458 24.5792V25.6335H199.811V20.6914C199.811 19.3734 199.475 18.5168 198.735 17.7919C198.063 17.133 196.988 16.8694 195.644 16.8694ZM197.257 22.8659C197.122 23.2613 196.854 23.5249 196.585 23.7226C196.249 23.9203 195.845 23.9862 195.442 23.9862C194.972 23.9862 194.636 23.8544 194.434 23.7226C194.232 23.5249 194.031 23.2613 194.031 22.9977C194.031 22.3388 194.568 22.0093 195.577 22.0093H197.324V22.8659H197.257Z" fill="black"/>
<path d="M207.674 21.0867C208.145 20.889 208.413 20.6254 208.682 20.296C208.884 19.9665 209.018 19.637 209.018 19.2416C209.018 18.7145 208.817 18.3191 208.481 17.9237C208.145 17.5942 207.607 17.3306 207.002 17.0671C206.397 16.8694 205.658 16.8035 204.851 16.8035C203.709 16.8035 202.499 17.0671 201.289 17.5942L201.894 19.3734C202.902 18.978 203.776 18.7803 204.65 18.7803C205.255 18.7803 205.658 18.8462 205.927 18.978C206.195 19.1098 206.397 19.3075 206.397 19.5711C206.397 19.8347 206.263 20.0324 206.061 20.1642C205.859 20.296 205.456 20.3618 205.053 20.3618H203.507V21.8775H205.322C205.792 21.8775 206.128 21.9434 206.33 22.0751C206.532 22.2728 206.666 22.4046 206.666 22.6682C206.666 22.9977 206.464 23.2613 206.128 23.3931C205.792 23.5908 205.322 23.6566 204.717 23.6566C203.642 23.6566 202.566 23.459 201.693 22.9977L201.02 24.7769C201.625 25.0405 202.163 25.304 202.835 25.3699C203.44 25.5017 204.179 25.5676 204.851 25.5676C205.658 25.5676 206.397 25.4358 207.069 25.2381C207.674 25.0405 208.279 24.6451 208.615 24.2497C209.018 23.8543 209.22 23.3272 209.22 22.8659C209.22 22.4046 209.085 22.0092 208.817 21.6798C208.548 21.4821 208.145 21.2844 207.674 21.0867Z" fill="black"/>
<path d="M217.823 21.0209C218.226 20.8232 218.562 20.5596 218.831 20.296C219.032 19.9665 219.167 19.637 219.167 19.1758C219.167 18.5168 218.898 17.9237 218.226 17.5284C217.621 17.133 216.747 16.9353 215.605 16.9353H211.102V25.5018H215.739C216.949 25.5018 217.823 25.3041 218.36 24.9087C218.965 24.4474 219.301 23.9203 219.301 23.1295C219.368 22.0752 218.831 21.3503 217.823 21.0209ZM213.454 18.6486H215.336C216.21 18.6486 216.68 18.9122 216.68 19.5711C216.68 20.1642 216.21 20.4937 215.336 20.4937H213.454V18.6486ZM215.605 23.8544H213.454V21.9434H215.672C216.142 21.9434 216.478 22.0093 216.68 22.1411C216.882 22.3388 217.016 22.5365 217.016 22.8659C217.016 23.5249 216.546 23.8544 215.605 23.8544Z" fill="black"/>
<path d="M223.804 22.0752V16.9353H221.25V25.5677H223.602L227.837 20.4278V25.5677H230.391V16.9353H228.038L223.804 22.0752Z" fill="black"/>
<path d="M231.735 18.9781H234.692V25.5677H237.246V18.9781H240.136V16.9353H231.735V18.9781Z" fill="black"/>
<path d="M244.034 22.0752V16.9353H241.547V25.5677H243.832L248.134 20.4278V25.5677H250.62V16.9353H248.268L244.034 22.0752Z" fill="black"/>
<path d="M253.577 17.726C252.838 18.3191 252.502 19.044 252.502 20.0324C252.502 20.6255 252.704 21.2185 252.973 21.6139C253.309 22.0752 253.779 22.4046 254.384 22.6023L252.368 25.4359H255.056L256.736 22.9977H258.551V25.4359H260.769V16.8694H256.535C255.392 16.9353 254.317 17.2648 253.577 17.726ZM258.618 18.9781V21.4162H256.736C256.199 21.4162 255.795 21.2844 255.526 21.1526C255.258 21.0208 255.123 20.6255 255.123 20.1642C255.123 19.7029 255.258 19.4393 255.526 19.2416C255.795 19.044 256.199 18.9781 256.736 18.9781H258.618Z" fill="black"/>
<path d="M278.781 14.3652L274.546 21.3502L270.312 14.3652H268.094V25.5675H270.581V18.978L273.942 24.3814H275.084L278.512 18.8462V25.5675H280.998L280.931 14.3652H278.781Z" fill="black"/>
<path d="M287.45 16.8695C288.055 16.6059 288.66 16.4082 289.332 16.4082C290.475 16.4082 291.416 16.8695 292.222 17.7261L293.902 16.2105C293.365 15.6175 292.693 15.0903 291.886 14.7608C291.08 14.4313 290.206 14.2336 289.265 14.2336C288.123 14.2336 287.047 14.4313 286.106 14.9585C285.165 15.4857 284.426 16.1446 283.888 17.0013C283.351 17.9238 283.082 18.8464 283.082 19.9666C283.082 21.0868 283.351 22.0753 283.888 22.9319C284.426 23.8545 285.165 24.5134 286.106 24.9747C287.047 25.5019 288.123 25.6995 289.265 25.6995C290.273 25.6995 291.147 25.5019 291.953 25.1724C292.76 24.8429 293.432 24.3157 293.97 23.7227L292.289 22.2071C291.55 23.1296 290.542 23.525 289.399 23.525C288.727 23.525 288.055 23.3273 287.518 23.0637C286.98 22.8001 286.51 22.3388 286.241 21.8117C285.972 21.2186 285.77 20.6256 285.77 19.9666C285.77 19.3076 285.972 18.6487 286.241 18.1215C286.442 17.5943 286.913 17.1331 287.45 16.8695Z" fill="black"/>
<path d="M295.583 14.3652V25.5675H298.204V16.4739H303.379V25.5675H306V14.3652H295.583Z" fill="black"/>
<path d="M67.2756 40.3941H68.1493V32.5525H73.8621V40.3941H74.7358V31.7617H67.2756V40.3941Z" fill="black"/>
<path d="M81.7927 34.266C81.3222 34.0024 80.7846 33.8706 80.1125 33.8706C79.4404 33.8706 78.9699 34.0024 78.4323 34.266C77.8946 34.5296 77.5586 34.9249 77.2897 35.4521C77.0209 35.9793 76.8865 36.5064 76.8865 37.1654C76.8865 37.7585 77.0881 38.3515 77.3569 38.8787C77.6258 39.4059 78.029 39.8012 78.5667 40.0648C79.1044 40.3284 79.7092 40.5261 80.3813 40.5261C80.919 40.5261 81.3894 40.3943 81.7927 40.2625C82.2631 40.0648 82.5992 39.8012 82.868 39.4718L82.3303 38.8787C82.1287 39.1423 81.7255 39.4059 81.3894 39.4718C81.0534 39.6694 80.6501 39.6694 80.2469 39.6694C79.5076 39.6694 78.9027 39.4718 78.4323 39.0764C77.9618 38.681 77.693 38.0879 77.6258 37.429H83.2041V37.1654C83.2041 36.5723 83.0696 35.9134 82.8008 35.4521C82.6664 34.9249 82.3304 34.5296 81.7927 34.266ZM77.7602 36.77C77.8274 36.177 78.029 35.5839 78.4995 35.1885C78.9699 34.7931 79.5076 34.5955 80.1125 34.5955C80.7174 34.5955 81.3222 34.7931 81.7255 35.1885C82.1959 35.5839 82.3976 36.1111 82.4648 36.77H77.7602Z" fill="black"/>
<path d="M90.4626 34.266C89.9249 34.0024 89.3872 33.8706 88.7824 33.8706C88.1775 33.8706 87.7742 34.0024 87.3038 34.2001C86.8333 34.3978 86.4973 34.7931 86.2284 35.1885V33.8706H85.3547V42.8325H86.2957V39.2082C86.5645 39.6036 86.9005 39.933 87.371 40.1966C87.8414 40.3943 88.3119 40.5261 88.7824 40.5261C89.3872 40.5261 89.9921 40.3943 90.5298 40.1307C91.0674 39.8671 91.4707 39.4718 91.7395 38.9446C92.0084 38.4174 92.1428 37.8903 92.1428 37.1654C92.1428 36.5723 92.0084 35.9134 91.7395 35.3862C91.3363 34.9249 91.0002 34.5296 90.4626 34.266ZM90.8658 38.4833C90.6642 38.8787 90.3282 39.1423 89.9921 39.4059C89.5889 39.6036 89.1856 39.7353 88.7152 39.7353C88.2447 39.7353 87.7742 39.6036 87.4382 39.4059C87.0349 39.2082 86.7661 38.8787 86.5645 38.4833C86.3629 38.0879 86.2284 37.6267 86.2284 37.0995C86.2284 36.5723 86.3629 36.1111 86.5645 35.7816C86.7661 35.3862 87.1022 35.1226 87.4382 34.859C87.8414 34.6614 88.2447 34.5296 88.7152 34.5296C89.1856 34.5296 89.5889 34.6614 89.9921 34.859C90.3954 35.0567 90.6642 35.3862 90.8658 35.7816C91.0674 36.177 91.2019 36.6382 91.2019 37.0995C91.2019 37.6267 91.0674 38.0879 90.8658 38.4833Z" fill="black"/>
<path d="M97.7211 38.6151L94.8983 33.9365H94.0246V40.3943H94.8983V35.2544L97.5866 39.6036H97.9899L100.611 35.2544V40.3943H101.485V33.9365H100.611L97.7211 38.6151Z" fill="black"/>
<path d="M105.517 34.9249C105.92 34.7272 106.324 34.5954 106.861 34.5954C107.265 34.5954 107.601 34.6613 107.937 34.7931C108.273 34.9908 108.542 35.1885 108.81 35.518L109.483 35.0567C109.214 34.6613 108.878 34.3318 108.407 34.0682C107.937 33.8706 107.399 33.7388 106.861 33.7388C106.257 33.7388 105.584 33.8706 105.047 34.1341C104.509 34.3977 104.106 34.7931 103.837 35.3203C103.568 35.8474 103.367 36.3746 103.367 37.0336C103.367 37.6266 103.568 38.2197 103.837 38.7469C104.106 39.274 104.509 39.6694 105.047 39.933C105.584 40.1966 106.122 40.3284 106.861 40.3284C107.466 40.3284 107.937 40.1966 108.407 39.9989C108.878 39.8012 109.214 39.4058 109.483 39.0104L108.81 38.5492C108.609 38.8787 108.273 39.1422 107.937 39.274C107.601 39.4717 107.265 39.4717 106.861 39.4717C106.391 39.4717 105.92 39.3399 105.517 39.1422C105.114 38.9446 104.845 38.6151 104.576 38.2197C104.375 37.8243 104.24 37.3631 104.24 36.8359C104.24 36.3087 104.375 35.8474 104.576 35.4521C104.845 35.4521 105.114 35.1885 105.517 34.9249Z" fill="black"/>
<path d="M116.875 33.9365H115.935L113.582 36.7701H112.036V33.9365H111.163V40.3943H112.036V37.5608H113.582L116.002 40.3943H117.144L114.322 37.0995L116.875 33.9365Z" fill="black"/>
<path d="M122.79 34.266C122.252 34.0024 121.714 33.8706 121.042 33.8706C120.438 33.8706 119.833 34.0024 119.295 34.266C118.757 34.5296 118.354 34.9249 118.085 35.4521C117.816 35.9793 117.615 36.5064 117.615 37.1654C117.615 37.7585 117.816 38.3515 118.085 38.8787C118.354 39.4059 118.757 39.8012 119.295 40.0648C119.833 40.3284 120.37 40.5261 121.042 40.5261C121.647 40.5261 122.252 40.3284 122.79 40.0648C123.327 39.8012 123.731 39.4059 124 38.8787C124.268 38.3515 124.47 37.8244 124.47 37.1654C124.47 36.5723 124.268 35.9793 124 35.4521C123.731 34.9249 123.26 34.5296 122.79 34.266ZM123.193 38.4833C122.991 38.8787 122.655 39.1423 122.319 39.4059C121.916 39.6036 121.513 39.7353 121.042 39.7353C120.572 39.7353 120.101 39.6036 119.765 39.4059C119.362 39.2082 119.093 38.8787 118.892 38.4833C118.69 38.0879 118.556 37.6267 118.556 37.0995C118.556 36.5723 118.69 36.1111 118.892 35.7157C119.093 35.3203 119.429 35.0567 119.765 34.7931C120.169 34.5955 120.572 34.4637 121.042 34.4637C121.513 34.4637 121.983 34.5955 122.319 34.7931C122.723 34.9908 122.991 35.3203 123.193 35.7157C123.395 36.1111 123.462 36.5723 123.462 37.0995C123.529 37.6267 123.395 38.0879 123.193 38.4833Z" fill="black"/>
<path d="M126.352 40.3943H127.226V34.7273H131.056V33.9365H126.352V40.3943Z" fill="black"/>
<path d="M136.568 34.266C136.03 34.0024 135.492 33.8706 134.82 33.8706C134.215 33.8706 133.61 34.0024 133.073 34.266C132.535 34.5296 132.132 34.9249 131.863 35.4521C131.594 35.9793 131.392 36.5064 131.392 37.1654C131.392 37.7585 131.594 38.3515 131.863 38.8787C132.132 39.4059 132.535 39.8012 133.073 40.0648C133.61 40.3284 134.148 40.5261 134.82 40.5261C135.425 40.5261 136.03 40.3284 136.568 40.0648C137.105 39.8012 137.508 39.4059 137.777 38.8787C138.046 38.3515 138.248 37.8244 138.248 37.1654C138.248 36.5723 138.046 35.9793 137.777 35.4521C137.508 34.9249 137.038 34.5296 136.568 34.266ZM136.971 38.4833C136.769 38.8787 136.433 39.1423 136.097 39.4059C135.694 39.6036 135.291 39.7353 134.82 39.7353C134.35 39.7353 133.879 39.6036 133.543 39.4059C133.14 39.2082 132.871 38.8787 132.669 38.4833C132.468 38.0879 132.333 37.6267 132.333 37.0995C132.333 36.5723 132.468 36.1111 132.669 35.7157C132.871 35.3203 133.207 35.0567 133.543 34.7931C133.946 34.5955 134.35 34.4637 134.82 34.4637C135.291 34.4637 135.761 34.5955 136.097 34.7931C136.5 34.9908 136.769 35.3203 136.971 35.7157C137.172 36.1111 137.24 36.5723 137.24 37.0995C137.24 37.6267 137.172 38.0879 136.971 38.4833Z" fill="black"/>
<path d="M149.136 33.9365H148.195L145.842 36.7701H144.297V33.9365H143.423V40.3943H144.297V37.5608H145.842L148.262 40.3943H149.337L146.582 37.0995L149.136 33.9365Z" fill="black"/>
<path d="M155.924 34.266C155.386 34.0024 154.848 33.8706 154.243 33.8706C153.638 33.8706 153.235 34.0024 152.765 34.2001C152.294 34.3978 151.958 34.7931 151.689 35.1885V33.8706H150.816V42.8325H151.757V39.2082C152.025 39.6036 152.362 39.933 152.832 40.1966C153.302 40.3943 153.773 40.5261 154.243 40.5261C154.848 40.5261 155.453 40.3943 155.991 40.1307C156.528 39.8671 156.932 39.4718 157.201 38.9446C157.469 38.4174 157.604 37.8903 157.604 37.1654C157.604 36.5723 157.469 35.9134 157.201 35.3862C156.797 34.9249 156.394 34.5296 155.924 34.266ZM156.327 38.4833C156.125 38.8787 155.789 39.1423 155.453 39.4059C155.05 39.6036 154.647 39.7353 154.176 39.7353C153.706 39.7353 153.235 39.6036 152.899 39.4059C152.496 39.2082 152.227 38.8787 152.025 38.4833C151.824 38.0879 151.689 37.6267 151.689 37.0995C151.689 36.5723 151.824 36.1111 152.025 35.7816C152.227 35.3862 152.563 35.1226 152.899 34.859C153.302 34.6614 153.706 34.5296 154.176 34.5296C154.647 34.5296 155.05 34.6614 155.453 34.859C155.856 35.0567 156.125 35.3862 156.327 35.7816C156.528 36.177 156.663 36.6382 156.663 37.0995C156.596 37.6267 156.528 38.0879 156.327 38.4833Z" fill="black"/>
<path d="M161.703 33.8706C161.166 33.8706 160.695 33.9365 160.225 34.0683C159.754 34.266 159.351 34.4637 159.015 34.7272L159.418 35.3862C159.687 35.1885 160.023 34.9249 160.426 34.7931C160.83 34.6614 161.233 34.5955 161.636 34.5955C162.241 34.5955 162.712 34.7931 163.048 35.0567C163.384 35.3203 163.518 35.7816 163.518 36.3746V36.77H161.367C160.426 36.77 159.822 36.9677 159.418 37.2972C159.015 37.6267 158.813 38.0879 158.813 38.681C158.813 39.2741 159.015 39.6695 159.418 40.0648C159.889 40.3943 160.426 40.592 161.233 40.592C161.771 40.592 162.241 40.4602 162.644 40.3284C163.048 40.1307 163.316 39.8671 163.518 39.5377V40.5261H164.392V36.4405C164.392 35.5839 164.19 34.9908 163.72 34.5296C163.249 34.0683 162.577 33.8706 161.703 33.8706ZM163.518 38.4833C163.316 38.9446 163.048 39.2082 162.712 39.4718C162.376 39.6695 161.905 39.8012 161.367 39.8012C160.83 39.8012 160.426 39.6695 160.09 39.4718C159.822 39.2741 159.62 38.9446 159.62 38.5492C159.62 37.7585 160.225 37.3631 161.367 37.3631H163.451L163.518 38.4833Z" fill="black"/>
<path d="M167.013 34.4637C166.475 34.859 166.274 35.4521 166.274 36.1111C166.274 36.6382 166.408 37.0995 166.677 37.429C166.946 37.7585 167.349 38.022 167.887 38.1538L166.206 40.3943H167.215L168.76 38.2197H168.962H171.045V40.3943H171.852V33.8706H169.029C168.223 33.9365 167.551 34.0683 167.013 34.4637ZM171.045 34.7272V37.6926H169.029C167.752 37.6926 167.147 37.1654 167.147 36.2429C167.147 35.2544 167.752 34.7931 169.096 34.7931H171.045V34.7272Z" fill="black"/>
<path d="M36.3597 49.8175L58.0681 28.4672L43.551 14.2336L36.3597 49.8175Z" fill="#D3AF90"/>
<path d="M29.0341 0L7.32574 21.3503L43.5511 14.2335L29.0341 0Z" fill="#D3AF90"/>
<path d="M14.517 42.7665L29.034 57.0001L36.3598 49.8174L26.6818 40.3943L14.517 42.7665Z" fill="#BC5B5B"/>
<path d="M7.32572 21.3503L0 28.4671L14.517 42.7665L17.0037 30.8394L7.32572 21.3503Z" fill="#BC5B5B"/>
<path d="M43.5511 14.2336L7.32574 21.3504L17.0038 30.8394L43.5511 14.2336Z" fill="white"/>
<path d="M26.6818 40.3943L36.3598 49.8175L43.5511 14.2336L26.6818 40.3943Z" fill="white"/>
<path d="M43.5511 14.2336L14.517 42.7666L26.6818 40.3943L43.5511 14.2336Z" fill="#254C68"/>
<path d="M17.0037 30.8394L14.517 42.7666L43.5511 14.2336L17.0037 30.8394Z" fill="#143547"/>
<path d="M462.715 47.2943L458.521 43.1487L454.43 47.2943L458.521 56.0001L462.715 47.2943Z" fill="#ED5338"/>
<path d="M458.521 19.2078C456.987 19.2078 455.658 20.4514 455.658 22.1097C455.658 23.6643 456.885 25.0116 458.521 25.0116C460.056 25.0116 461.385 23.7679 461.385 22.1097C461.385 20.5551 460.158 19.2078 458.521 19.2078Z" fill="#C59368"/>
<path d="M462.204 34.0282L458.522 30.2972L454.839 34.0282C454.635 33.51 452.18 26.7734 452.18 22.4205C452.18 16.5131 458.01 13.1966 458.522 12.9893C458.931 13.1966 464.863 16.5131 464.863 22.4205C464.863 26.7734 462.408 33.51 462.204 34.0282ZM458.522 6.25269C457.601 6.66725 446.248 12.782 446.248 22.5242C446.248 30.8154 452.896 43.4595 452.896 43.4595L458.419 37.8629L463.943 43.4595C463.943 43.4595 470.591 30.8154 470.591 22.5242C470.795 12.782 459.442 6.66725 458.522 6.25269Z" fill="#C59368"/>
<path d="M470.806 1.99989L466.61 6.24976L470.805 10.5008L475 6.25096L470.806 1.99989Z" fill="#C59368"/>
<path d="M431.314 10.2947C431.212 11.2274 430.905 11.642 430.291 11.642C429.575 11.642 429.268 11.2274 429.166 10.2947H425.586C425.689 12.8857 427.223 14.7512 430.291 14.7512C433.155 14.7512 434.792 12.8857 434.894 10.2947H431.314Z" fill="#562212"/>
<path d="M423.95 28.2244V15.7876H428.041C428.041 15.7876 428.041 21.1769 428.041 21.5914C428.041 22.006 427.939 22.5242 427.939 22.5242H428.143L432.644 15.8912H436.531V28.328H432.439V22.5242C432.439 22.1096 432.542 21.6951 432.542 21.6951H432.337L427.837 28.328L423.95 28.2244Z" fill="#562212"/>
<path d="M415.46 24.7007C416.994 24.7007 417.915 23.5606 417.915 22.006C417.915 20.4514 416.892 19.3114 415.46 19.3114C414.028 19.3114 413.005 20.4514 413.005 22.006C413.005 23.5606 414.028 24.7007 415.46 24.7007ZM415.46 15.5803C419.347 15.5803 422.211 18.3786 422.211 22.1096C422.211 25.8407 419.347 28.639 415.46 28.639C411.573 28.639 408.71 25.8407 408.71 22.1096C408.71 18.3786 411.676 15.5803 415.46 15.5803Z" fill="#562212"/>
<path d="M403.8 15.8912C403.8 15.8912 400.322 20.4514 400.22 20.555C400.016 20.7623 400.016 20.866 400.016 20.866H399.913C399.913 20.866 399.913 20.7623 399.709 20.555C399.504 20.2441 395.924 15.8912 395.924 15.8912H392.651V28.328H396.64V23.146C396.64 22.6278 396.538 22.2133 396.538 22.2133H396.743L399.913 25.8407H400.118L403.084 22.1096H403.289C403.289 22.1096 403.186 22.4206 403.186 23.0424V28.2244H407.073V15.7876H403.8V15.8912Z" fill="#562212"/>
<path d="M365.444 41.3868C366.569 41.3868 367.592 40.9722 368.308 40.1431C369.024 39.314 369.433 38.3812 369.433 37.1375C369.433 34.6502 368.001 32.8883 365.546 32.8883C364.421 32.8883 363.5 33.1992 362.784 33.821C362.068 34.4429 361.557 35.1684 361.353 36.1011C361.353 39.314 362.989 41.3868 365.444 41.3868ZM370.558 25.3226C370.149 25.9444 369.637 26.359 369.024 26.5662C368.41 26.7735 367.592 26.9808 366.774 27.0844C365.853 27.1881 365.137 27.499 364.421 27.8099C362.58 28.639 361.557 30.6082 361.353 33.821H361.455C362.068 32.0592 364.012 30.9191 366.058 30.9191C369.535 30.9191 371.785 33.3028 371.785 37.1375C371.785 38.8994 371.172 40.454 370.047 41.6977C368.819 42.8377 367.285 43.4596 365.444 43.4596C363.5 43.4596 361.864 42.7341 360.739 41.3868C359.614 39.9358 359 38.0703 359 35.6866C359 30.2973 360.534 26.9808 363.5 25.6335C364.216 25.3226 365.035 25.1153 365.853 24.908C367.592 24.5971 368.512 24.3898 369.228 23.457L370.558 25.3226Z" fill="#562212"/>
<path d="M375.774 43.1487H373.627V30.7119H375.774V39.9359L382.832 30.7119H384.98V43.1487H382.832V33.9248L375.774 43.1487Z" fill="#562212"/>
<path d="M388.764 42.9413C387.742 42.6304 387.026 42.2159 386.616 41.6977L387.742 40.0394C388.764 40.8685 390.196 41.3867 391.321 41.3867C393.163 41.3867 394.492 40.5576 394.492 39.3139C394.492 38.2775 393.572 37.7593 392.14 37.7593H390.094V35.9974H392.037C393.265 35.9974 394.185 35.272 394.185 34.2356C394.185 33.0955 393.163 32.4737 391.526 32.4737C390.196 32.4737 388.969 32.9919 387.844 33.821L387.026 32.0591C388.048 31.0227 389.89 30.4009 391.833 30.4009C394.799 30.4009 396.436 31.6446 396.436 33.7174C396.436 35.1683 395.72 36.1011 394.288 36.6193V36.7229C395.924 36.9302 396.845 38.1739 396.845 39.6248C396.845 41.9049 394.697 43.3559 391.628 43.3559C390.708 43.4595 389.787 43.2523 388.764 42.9413Z" fill="#562212"/>
<path d="M407.994 43.1487V37.8631H401.141V43.1487H398.993V30.7119H401.141V35.7903H407.994V30.7119H410.142V43.1487H407.994Z" fill="#562212"/>
<path d="M414.437 35.7902H421.904C421.802 33.7174 420.472 32.4737 418.324 32.4737C416.176 32.5773 414.642 33.9246 414.437 35.7902ZM423.234 41.8013C422.109 42.8377 420.472 43.4595 418.631 43.4595C416.688 43.4595 415.051 42.8377 413.824 41.6976C412.596 40.5576 411.983 38.8994 411.983 36.9302C411.983 35.0647 412.596 33.5101 413.721 32.2664C414.847 31.0227 416.381 30.4009 418.324 30.4009C419.961 30.4009 421.29 30.9191 422.416 31.9555C423.541 32.9919 424.052 34.3392 424.052 35.9974C424.052 36.6193 423.95 37.0338 423.95 37.4484H414.54C414.744 39.7285 416.381 41.1794 418.836 41.1794C420.472 41.1794 421.7 40.7649 422.62 39.8321L423.234 41.8013Z" fill="#562212"/>
<path d="M436.94 41.3869C435.917 42.7342 434.178 43.4597 432.235 43.4597C430.291 43.4597 428.655 42.8378 427.427 41.6978C426.2 40.5577 425.586 38.8995 425.586 36.9303C425.586 35.0648 426.2 33.6138 427.325 32.3702C428.45 31.1265 429.984 30.5046 431.723 30.5046C433.871 30.5046 435.508 31.0228 436.531 32.1629L435.508 33.9248C434.587 33.0956 433.462 32.5774 432.03 32.5774C430.905 32.5774 429.882 32.992 429.064 33.8211C428.246 34.6502 427.836 35.6866 427.836 36.9303C427.836 38.2776 428.246 39.314 429.064 40.1432C429.882 40.9723 431.007 41.3869 432.235 41.3869C433.667 41.3869 434.792 40.8687 435.712 39.8323L436.94 41.3869Z" fill="#562212"/>
</svg>
