<svg width="296" height="55" viewBox="0 0 296 55" fill="none" xmlns="http://www.w3.org/2000/svg">
<path d="M67.4827 20.2833H69.303L72.1635 24.6706H75.0241L71.3184 19.0752L74.9591 13.8613H72.2285L69.368 18.2486H67.4827V13.8613H65.0122V24.6706H67.4827V20.2833Z" fill="black"/>
<path d="M83.9304 22.6993C84.3205 22.0635 84.5155 21.3641 84.5155 20.5375C84.5155 19.7109 84.3205 18.9479 83.9304 18.3756C83.5404 17.7398 82.9552 17.2311 82.2401 16.8496C81.525 16.4681 80.7448 16.2773 79.8347 16.2773C78.9245 16.2773 78.1444 16.4681 77.4292 16.8496C76.7141 17.2311 76.129 17.7398 75.7389 18.3756C75.3488 19.0115 75.1538 19.7109 75.1538 20.5375C75.1538 21.3641 75.3488 22.1271 75.7389 22.6993C76.129 23.3352 76.7141 23.8438 77.4292 24.2253C78.1444 24.6068 78.9245 24.7976 79.8347 24.7976C80.7448 24.7976 81.525 24.6068 82.2401 24.2253C83.0203 23.8438 83.5404 23.3352 83.9304 22.6993ZM81.46 22.1271C81.0699 22.5721 80.4848 22.6993 79.8997 22.6993C79.3146 22.6993 78.7295 22.5086 78.3394 22.1271C77.9493 21.682 77.7543 21.1733 77.7543 20.4103C77.7543 19.7109 77.9493 19.1386 78.3394 18.6935C78.7295 18.2484 79.3146 18.1213 79.8997 18.1213C80.4848 18.1213 81.0699 18.312 81.46 18.6935C81.85 19.1386 82.0451 19.6473 82.0451 20.4103C82.0451 21.1733 81.85 21.7456 81.46 22.1271Z" fill="black"/>
<path d="M88.6115 23.7803C89.1966 24.4162 90.0418 24.7341 91.147 24.7341C91.9271 24.7341 92.6422 24.5433 93.2924 24.1618C93.9425 23.8439 94.4626 23.2717 94.7876 22.6994C95.1777 22.0636 95.3728 21.3642 95.3728 20.474C95.3728 19.5838 95.1777 18.8844 94.7876 18.2485C94.3976 17.6127 93.8775 17.104 93.2924 16.7861C92.6422 16.4682 91.9271 16.2139 91.147 16.2139C89.9768 16.2139 89.0666 16.5954 88.4815 17.2948V16.341H86.2061V27.659H88.6765V23.7803H88.6115ZM89.2616 18.8208C89.6517 18.3757 90.2368 18.2485 90.8219 18.2485C91.407 18.2485 91.9921 18.4393 92.3822 18.8208C92.7723 19.2659 92.9673 19.7746 92.9673 20.5376C92.9673 21.237 92.7723 21.8092 92.3822 22.2543C91.9921 22.6994 91.407 22.8266 90.8219 22.8266C90.2368 22.8266 89.6517 22.6358 89.2616 22.2543C88.8715 21.8092 88.6765 21.3006 88.6765 20.5376C88.6115 19.8381 88.8065 19.2659 89.2616 18.8208Z" fill="black"/>
<path d="M103.109 24.6705H105.579V16.3411H97.1929V24.6705H99.5983V18.3122H103.109V24.6705Z" fill="black"/>
<path d="M109.481 24.2253C110.196 24.6068 110.976 24.7976 111.886 24.7976C112.796 24.7976 113.576 24.6068 114.291 24.2253C115.007 23.8438 115.527 23.3352 115.982 22.6993C116.372 22.0635 116.567 21.3641 116.567 20.5375C116.567 19.7109 116.372 18.9479 115.982 18.3756C115.592 17.7398 115.007 17.2311 114.291 16.8496C113.576 16.4681 112.796 16.2773 111.886 16.2773C110.976 16.2773 110.196 16.4681 109.481 16.8496C108.765 17.2311 108.18 17.7398 107.79 18.3756C107.4 19.0115 107.205 19.7109 107.205 20.5375C107.205 21.3641 107.4 22.1271 107.79 22.6993C108.245 23.3352 108.765 23.8438 109.481 24.2253ZM110.326 18.8207C110.716 18.3756 111.301 18.2484 111.886 18.2484C112.471 18.2484 113.056 18.4392 113.446 18.8207C113.836 19.2658 114.031 19.7745 114.031 20.5375C114.031 21.2369 113.836 21.8091 113.446 22.2542C113.056 22.6993 112.471 22.8265 111.886 22.8265C111.301 22.8265 110.716 22.6357 110.326 22.2542C109.936 21.8091 109.741 21.3005 109.741 20.5375C109.741 19.838 109.936 19.2658 110.326 18.8207Z" fill="black"/>
<path d="M126.903 18.312C126.513 17.6762 125.993 17.1675 125.408 16.8496C124.758 16.5317 124.043 16.2773 123.263 16.2773C122.093 16.2773 121.182 16.6588 120.597 17.3583V16.4045H118.257V27.7224H120.727V23.8438C121.312 24.4797 122.158 24.7976 123.263 24.7976C124.043 24.7976 124.758 24.6068 125.408 24.2253C126.058 23.9074 126.578 23.3352 126.903 22.7629C127.294 22.1271 127.489 21.4276 127.489 20.5375C127.424 19.6473 127.294 18.8843 126.903 18.312ZM124.368 22.1271C123.978 22.5721 123.393 22.6993 122.808 22.6993C122.223 22.6993 121.637 22.5086 121.247 22.1271C120.857 21.682 120.662 21.1733 120.662 20.4103C120.662 19.7109 120.857 19.1386 121.247 18.6935C121.637 18.2484 122.223 18.1213 122.808 18.1213C123.393 18.1213 123.978 18.312 124.368 18.6935C124.758 19.1386 124.953 19.6473 124.953 20.4103C125.018 21.1733 124.758 21.7456 124.368 22.1271Z" fill="black"/>
<path d="M132.3 16.2773C131.65 16.2773 130.934 16.4045 130.284 16.5317C129.634 16.6588 129.049 16.9768 128.594 17.2947L129.504 19.0114C129.764 18.8207 130.154 18.5664 130.609 18.4392C131.065 18.2484 131.52 18.2484 131.975 18.2484C132.625 18.2484 133.08 18.4392 133.405 18.6935C133.73 18.9479 133.925 19.393 133.925 19.9016H131.975C130.739 19.9016 129.829 20.0924 129.244 20.5375C128.659 20.9825 128.334 21.5548 128.334 22.3178C128.334 22.8265 128.464 23.2716 128.724 23.6531C128.984 24.0346 129.309 24.2889 129.829 24.5432C130.349 24.7976 130.869 24.8612 131.52 24.8612C132.82 24.8612 133.665 24.4797 134.055 23.7167V24.734H136.331V19.9652C136.331 18.6935 136.005 17.8669 135.29 17.1675C134.64 16.5317 133.665 16.2773 132.3 16.2773ZM133.925 22.0635C133.795 22.445 133.535 22.6993 133.275 22.8901C132.95 23.0808 132.56 23.1444 132.17 23.1444C131.715 23.1444 131.39 23.0172 131.195 22.8901C130.999 22.6993 130.804 22.445 130.804 22.1906C130.804 21.5548 131.325 21.2369 132.3 21.2369H133.99V22.0635H133.925Z" fill="black"/>
<path d="M148.097 26.4509V22.6994H146.862V16.3411H144.392V22.6994H141.011V16.3411H138.541V24.6705H145.757V26.4509H148.097Z" fill="black"/>
<path d="M155.964 19.711V24.6705H158.434V16.3411H156.224L152.063 21.3006V16.3411H149.658V24.6705H151.868L155.964 19.711Z" fill="black"/>
<path d="M161.295 17.1039C160.58 17.6762 160.255 18.3756 160.255 19.3294C160.255 19.9016 160.45 20.4739 160.71 20.8554C161.035 21.3005 161.49 21.6184 162.075 21.8091L160.125 24.5432H162.725L164.35 22.1906H166.106V24.5432H168.251V16.2773H164.155C162.985 16.3409 162.01 16.6588 161.295 17.1039ZM166.106 18.312V20.6646H164.285C163.765 20.6646 163.375 20.5375 163.115 20.4103C162.855 20.2831 162.725 19.9016 162.725 19.4565C162.725 19.0114 162.855 18.7571 163.115 18.5664C163.375 18.3756 163.765 18.312 164.285 18.312H166.106Z" fill="black"/>
<path d="M182.294 16.7226C181.644 16.4047 180.929 16.1504 180.149 16.1504C178.978 16.1504 178.068 16.5319 177.483 17.2313V16.2776H175.143V27.5955H177.613V23.7169C178.198 24.3527 179.043 24.6706 180.149 24.6706C180.929 24.6706 181.644 24.4799 182.294 24.0984C182.944 23.7804 183.464 23.2082 183.789 22.6359C184.179 22.0001 184.374 21.3007 184.374 20.4105C184.374 19.5203 184.179 18.8209 183.789 18.1851C183.399 17.6128 182.944 17.1041 182.294 16.7226ZM181.254 22.1273C180.864 22.5724 180.279 22.6995 179.693 22.6995C179.108 22.6995 178.523 22.5088 178.133 22.1273C177.743 21.6822 177.548 21.1735 177.548 20.4105C177.548 19.7111 177.743 19.1388 178.133 18.6937C178.523 18.2487 179.108 18.1215 179.693 18.1215C180.279 18.1215 180.864 18.3122 181.254 18.6937C181.644 19.1388 181.839 19.6475 181.839 20.4105C181.839 21.1735 181.709 21.7458 181.254 22.1273Z" fill="black"/>
<path d="M189.25 16.2773C188.6 16.2773 187.885 16.4045 187.235 16.5317C186.584 16.7224 185.999 16.9768 185.544 17.2947L186.454 19.0114C186.714 18.8207 187.105 18.5664 187.56 18.4392C188.015 18.2484 188.47 18.2484 188.925 18.2484C189.575 18.2484 190.03 18.4392 190.355 18.6935C190.68 18.9479 190.875 19.393 190.875 19.9016H188.925C187.69 19.9016 186.779 20.0924 186.194 20.5375C185.609 20.9825 185.284 21.5548 185.284 22.3178C185.284 22.8265 185.414 23.2716 185.674 23.6531C185.934 24.0346 186.259 24.2889 186.779 24.5432C187.3 24.7976 187.82 24.8612 188.47 24.8612C189.77 24.8612 190.615 24.4797 191.005 23.7167V24.734H193.281V19.9652C193.281 18.6935 192.956 17.8669 192.24 17.1675C191.59 16.5317 190.55 16.2773 189.25 16.2773ZM190.81 22.0635C190.68 22.445 190.42 22.6993 190.16 22.8901C189.835 23.0808 189.445 23.1444 189.055 23.1444C188.6 23.1444 188.275 23.0172 188.08 22.8901C187.885 22.6993 187.69 22.445 187.69 22.1906C187.69 21.5548 188.21 21.2369 189.185 21.2369H190.875V22.0635H190.81Z" fill="black"/>
<path d="M200.887 20.3468C201.342 20.1561 201.602 19.9017 201.863 19.5838C202.058 19.2659 202.188 18.948 202.188 18.5665C202.188 18.0578 201.993 17.6763 201.668 17.2948C201.342 16.9769 200.822 16.7225 200.237 16.4682C199.652 16.2775 198.937 16.2139 198.157 16.2139C197.052 16.2139 195.881 16.4682 194.711 16.9769L195.296 18.6936C196.272 18.3121 197.117 18.1214 197.962 18.1214C198.547 18.1214 198.937 18.185 199.197 18.3121C199.457 18.4393 199.652 18.6301 199.652 18.8844C199.652 19.1387 199.522 19.3295 199.327 19.4566C199.132 19.5838 198.742 19.6474 198.352 19.6474H196.857V21.1098H198.612C199.067 21.1098 199.392 21.1734 199.587 21.3006C199.782 21.4913 199.912 21.6185 199.912 21.8728C199.912 22.1907 199.717 22.4451 199.392 22.5722C199.067 22.763 198.612 22.8266 198.027 22.8266C196.987 22.8266 195.946 22.6358 195.101 22.1907L194.451 23.9075C195.036 24.1618 195.556 24.4162 196.207 24.4798C196.792 24.6069 197.507 24.6705 198.157 24.6705C198.937 24.6705 199.652 24.5433 200.302 24.3526C200.887 24.1618 201.472 23.7803 201.798 23.3988C202.188 23.0173 202.383 22.5087 202.383 22.0636C202.383 21.6185 202.253 21.237 201.993 20.9191C201.733 20.7283 201.342 20.5376 200.887 20.3468Z" fill="black"/>
<path d="M210.704 20.2833C211.094 20.0925 211.419 19.8382 211.68 19.5838C211.875 19.2659 212.005 18.948 212.005 18.5029C212.005 17.8671 211.745 17.2948 211.094 16.9133C210.509 16.5318 209.664 16.3411 208.559 16.3411H204.203V24.607H208.689C209.859 24.607 210.704 24.4162 211.224 24.0347C211.81 23.5896 212.135 23.0809 212.135 22.3179C212.2 21.3006 211.68 20.6012 210.704 20.2833ZM206.479 17.9942H208.299C209.144 17.9942 209.599 18.2486 209.599 18.8844C209.599 19.4567 209.144 19.7746 208.299 19.7746H206.479V17.9942ZM208.559 23.0174H206.479V21.1734H208.624C209.079 21.1734 209.404 21.237 209.599 21.3642C209.794 21.5549 209.924 21.7457 209.924 22.0636C209.924 22.6994 209.469 23.0174 208.559 23.0174Z" fill="black"/>
<path d="M216.49 21.3006V16.3411H214.02V24.6705H216.295L220.391 19.711V24.6705H222.861V16.3411H220.586L216.49 21.3006Z" fill="black"/>
<path d="M224.162 18.3122H227.022V24.6705H229.493V18.3122H232.288V16.3411H224.162V18.3122Z" fill="black"/>
<path d="M236.059 21.3006V16.3411H233.653V24.6705H235.864L240.025 19.711V24.6705H242.43V16.3411H240.155L236.059 21.3006Z" fill="black"/>
<path d="M245.29 17.1039C244.575 17.6762 244.25 18.3756 244.25 19.3294C244.25 19.9016 244.445 20.4739 244.705 20.8554C245.03 21.3005 245.485 21.6184 246.07 21.8091L244.12 24.5432H246.721L248.346 22.1906H250.101V24.5432H252.247V16.2773H248.151C247.046 16.3409 246.005 16.6588 245.29 17.1039ZM250.166 18.312V20.6646H248.346C247.826 20.6646 247.436 20.5375 247.176 20.4103C246.916 20.2831 246.786 19.9016 246.786 19.4565C246.786 19.0114 246.916 18.7571 247.176 18.5664C247.436 18.3756 247.826 18.312 248.346 18.312H250.166Z" fill="black"/>
<path d="M269.67 13.8613L265.574 20.6012L261.478 13.8613H259.333V24.6706H261.738V18.3122L264.989 23.5261H266.094L269.41 18.185V24.6706H271.815L271.75 13.8613H269.67Z" fill="black"/>
<path d="M278.057 16.2775C278.642 16.0231 279.227 15.8324 279.877 15.8324C280.982 15.8324 281.893 16.2775 282.673 17.1041L284.298 15.6416C283.778 15.0694 283.128 14.5607 282.348 14.2428C281.567 13.9249 280.722 13.7341 279.812 13.7341C278.707 13.7341 277.667 13.9249 276.757 14.4336C275.846 14.9422 275.131 15.5781 274.611 16.4047C274.091 17.2948 273.831 18.185 273.831 19.2659C273.831 20.3468 274.091 21.3006 274.611 22.1272C275.131 23.0174 275.846 23.6532 276.757 24.0983C277.667 24.607 278.707 24.7977 279.812 24.7977C280.787 24.7977 281.632 24.607 282.413 24.289C283.193 23.9711 283.843 23.4625 284.363 22.8902L282.738 21.4278C282.023 22.3179 281.047 22.6995 279.942 22.6995C279.292 22.6995 278.642 22.5087 278.122 22.2544C277.602 22 277.147 21.5549 276.887 21.0463C276.627 20.474 276.432 19.9018 276.432 19.2659C276.432 18.6301 276.627 17.9942 276.887 17.4856C277.082 16.9769 277.537 16.5318 278.057 16.2775Z" fill="black"/>
<path d="M285.923 13.8613V24.6706H288.459V15.896H293.465V24.6706H296V13.8613H285.923Z" fill="black"/>
<path d="M65.0771 38.9769H65.9223V31.4105H71.4483V38.9769H72.2935V30.6475H65.0771V38.9769Z" fill="black"/>
<path d="M79.1199 33.0636C78.6648 32.8093 78.1447 32.6821 77.4946 32.6821C76.8445 32.6821 76.3894 32.8093 75.8693 33.0636C75.3492 33.318 75.0241 33.6995 74.7641 34.2081C74.504 34.7168 74.374 35.2255 74.374 35.8613C74.374 36.4336 74.5691 37.0058 74.8291 37.5145C75.0892 38.0232 75.4792 38.4047 75.9993 38.659C76.5194 38.9133 77.1045 39.1041 77.7546 39.1041C78.2747 39.1041 78.7298 38.9769 79.1199 38.8498C79.575 38.659 79.9 38.4047 80.1601 38.0867L79.64 37.5145C79.445 37.7688 79.0549 38.0232 78.7298 38.0867C78.4048 38.2775 78.0147 38.2775 77.6246 38.2775C76.9095 38.2775 76.3244 38.0867 75.8693 37.7052C75.4142 37.3237 75.1542 36.7515 75.0892 36.1157H80.4852V35.8613C80.4852 35.2891 80.3551 34.6532 80.0951 34.2081C79.9651 33.6995 79.64 33.318 79.1199 33.0636ZM75.2192 35.4798C75.2842 34.9076 75.4792 34.3353 75.9343 33.9538C76.3894 33.5723 76.9095 33.3815 77.4946 33.3815C78.0797 33.3815 78.6648 33.5723 79.0549 33.9538C79.51 34.3353 79.705 34.844 79.77 35.4798H75.2192Z" fill="black"/>
<path d="M87.5063 33.0636C86.9862 32.8093 86.4661 32.6821 85.881 32.6821C85.2959 32.6821 84.9059 32.8093 84.4508 33C83.9957 33.1908 83.6706 33.5723 83.4106 33.9538V32.6821H82.5654V41.3295H83.4756V37.8324C83.7356 38.2139 84.0607 38.5318 84.5158 38.7862C84.9709 38.9769 85.426 39.1041 85.881 39.1041C86.4661 39.1041 87.0513 38.9769 87.5713 38.7226C88.0914 38.4683 88.4815 38.0868 88.7416 37.5781C89.0016 37.0694 89.1316 36.5607 89.1316 35.8613C89.1316 35.2891 89.0016 34.6532 88.7416 34.1446C88.3515 33.6995 88.0264 33.318 87.5063 33.0636ZM87.8964 37.133C87.7014 37.5145 87.3763 37.7688 87.0513 38.0232C86.6612 38.2139 86.2711 38.3411 85.816 38.3411C85.3609 38.3411 84.9059 38.2139 84.5808 38.0232C84.1907 37.8324 83.9307 37.5145 83.7356 37.133C83.5406 36.7515 83.4106 36.3064 83.4106 35.7977C83.4106 35.2891 83.5406 34.844 83.7356 34.5261C83.9307 34.1446 84.2557 33.8902 84.5808 33.6359C84.9709 33.4451 85.3609 33.318 85.816 33.318C86.2711 33.318 86.6612 33.4451 87.0513 33.6359C87.4413 33.8266 87.7014 34.1446 87.8964 34.5261C88.0914 34.9076 88.2215 35.3526 88.2215 35.7977C88.2215 36.3064 88.0914 36.7515 87.8964 37.133Z" fill="black"/>
<path d="M94.5273 37.2601L91.7968 32.7456H90.9517V38.9768H91.7968V34.0173L94.3973 38.2138H94.7874L97.3228 34.0173V38.9768H98.168V32.7456H97.3228L94.5273 37.2601Z" fill="black"/>
<path d="M102.069 33.6994C102.459 33.5087 102.849 33.3815 103.369 33.3815C103.759 33.3815 104.085 33.4451 104.41 33.5723C104.735 33.763 104.995 33.9538 105.255 34.2717L105.905 33.8266C105.645 33.4451 105.32 33.1272 104.865 32.8729C104.41 32.6821 103.889 32.5549 103.369 32.5549C102.784 32.5549 102.134 32.6821 101.614 32.9364C101.094 33.1908 100.704 33.5723 100.444 34.0809C100.184 34.5896 99.9888 35.0983 99.9888 35.7341C99.9888 36.3064 100.184 36.8786 100.444 37.3873C100.704 37.896 101.094 38.2775 101.614 38.5318C102.134 38.7861 102.654 38.9133 103.369 38.9133C103.955 38.9133 104.41 38.7861 104.865 38.5954C105.32 38.4046 105.645 38.0231 105.905 37.6416L105.255 37.1966C105.06 37.5145 104.735 37.7688 104.41 37.896C104.085 38.0867 103.759 38.0867 103.369 38.0867C102.914 38.0867 102.459 37.9596 102.069 37.7688C101.679 37.5781 101.419 37.2601 101.159 36.8786C100.964 36.4971 100.834 36.052 100.834 35.5434C100.834 35.0347 100.964 34.5896 101.159 34.2081C101.419 34.2081 101.679 33.9538 102.069 33.6994Z" fill="black"/>
<path d="M113.056 32.7456H112.146L109.87 35.4797H108.375V32.7456H107.53V38.9768H108.375V36.2427H109.87L112.211 38.9768H113.316L110.585 35.7976L113.056 32.7456Z" fill="black"/>
<path d="M118.777 33.0636C118.257 32.8093 117.737 32.6821 117.087 32.6821C116.502 32.6821 115.916 32.8093 115.396 33.0636C114.876 33.318 114.486 33.6995 114.226 34.2081C113.966 34.7168 113.771 35.2255 113.771 35.8613C113.771 36.4336 113.966 37.0058 114.226 37.5145C114.486 38.0232 114.876 38.4047 115.396 38.659C115.916 38.9133 116.436 39.1041 117.087 39.1041C117.672 39.1041 118.257 38.9133 118.777 38.659C119.297 38.4047 119.687 38.0232 119.947 37.5145C120.207 37.0058 120.402 36.4972 120.402 35.8613C120.402 35.2891 120.207 34.7168 119.947 34.2081C119.687 33.6995 119.232 33.318 118.777 33.0636ZM119.167 37.133C118.972 37.5145 118.647 37.7688 118.322 38.0232C117.932 38.2139 117.542 38.3411 117.087 38.3411C116.632 38.3411 116.176 38.2139 115.851 38.0232C115.461 37.8324 115.201 37.5145 115.006 37.133C114.811 36.7515 114.681 36.3064 114.681 35.7977C114.681 35.2891 114.811 34.844 115.006 34.4625C115.201 34.081 115.526 33.8266 115.851 33.5723C116.241 33.3816 116.632 33.2544 117.087 33.2544C117.542 33.2544 117.997 33.3816 118.322 33.5723C118.712 33.7631 118.972 34.081 119.167 34.4625C119.362 34.844 119.427 35.2891 119.427 35.7977C119.492 36.3064 119.362 36.7515 119.167 37.133Z" fill="black"/>
<path d="M122.223 38.9768H123.068V33.5086H126.774V32.7456H122.223V38.9768Z" fill="black"/>
<path d="M132.105 33.0636C131.584 32.8093 131.064 32.6821 130.414 32.6821C129.829 32.6821 129.244 32.8093 128.724 33.0636C128.204 33.318 127.814 33.6995 127.554 34.2081C127.294 34.7168 127.099 35.2255 127.099 35.8613C127.099 36.4336 127.294 37.0058 127.554 37.5145C127.814 38.0232 128.204 38.4047 128.724 38.659C129.244 38.9133 129.764 39.1041 130.414 39.1041C130.999 39.1041 131.584 38.9133 132.105 38.659C132.625 38.4047 133.015 38.0232 133.275 37.5145C133.535 37.0058 133.73 36.4972 133.73 35.8613C133.73 35.2891 133.535 34.7168 133.275 34.2081C133.015 33.6995 132.56 33.318 132.105 33.0636ZM132.495 37.133C132.3 37.5145 131.975 37.7688 131.649 38.0232C131.259 38.2139 130.869 38.3411 130.414 38.3411C129.959 38.3411 129.504 38.2139 129.179 38.0232C128.789 37.8324 128.529 37.5145 128.334 37.133C128.139 36.7515 128.009 36.3064 128.009 35.7977C128.009 35.2891 128.139 34.844 128.334 34.4625C128.529 34.081 128.854 33.8266 129.179 33.5723C129.569 33.3816 129.959 33.2544 130.414 33.2544C130.869 33.2544 131.324 33.3816 131.649 33.5723C132.04 33.7631 132.3 34.081 132.495 34.4625C132.69 34.844 132.755 35.2891 132.755 35.7977C132.755 36.3064 132.69 36.7515 132.495 37.133Z" fill="black"/>
<path d="M144.262 32.7456H143.352L141.076 35.4797H139.581V32.7456H138.736V38.9768H139.581V36.2427H141.076L143.417 38.9768H144.457L141.791 35.7976L144.262 32.7456Z" fill="black"/>
<path d="M150.828 33.0636C150.308 32.8093 149.788 32.6821 149.203 32.6821C148.618 32.6821 148.228 32.8093 147.773 33C147.317 33.1908 146.992 33.5723 146.732 33.9538V32.6821H145.887V41.3295H146.797V37.8324C147.057 38.2139 147.382 38.5318 147.838 38.7862C148.293 38.9769 148.748 39.1041 149.203 39.1041C149.788 39.1041 150.373 38.9769 150.893 38.7226C151.413 38.4683 151.803 38.0868 152.063 37.5781C152.323 37.0694 152.453 36.5607 152.453 35.8613C152.453 35.2891 152.323 34.6532 152.063 34.1446C151.673 33.6995 151.283 33.318 150.828 33.0636ZM151.218 37.133C151.023 37.5145 150.698 37.7688 150.373 38.0232C149.983 38.2139 149.593 38.3411 149.138 38.3411C148.683 38.3411 148.228 38.2139 147.903 38.0232C147.513 37.8324 147.252 37.5145 147.057 37.133C146.862 36.7515 146.732 36.3064 146.732 35.7977C146.732 35.2891 146.862 34.844 147.057 34.5261C147.252 34.1446 147.578 33.8902 147.903 33.6359C148.293 33.4451 148.683 33.318 149.138 33.318C149.593 33.318 149.983 33.4451 150.373 33.6359C150.763 33.8266 151.023 34.1446 151.218 34.5261C151.413 34.9076 151.543 35.3526 151.543 35.7977C151.478 36.3064 151.413 36.7515 151.218 37.133Z" fill="black"/>
<path d="M156.419 32.6821C155.899 32.6821 155.444 32.7457 154.989 32.8729C154.534 33.0636 154.144 33.2544 153.819 33.5087L154.209 34.1446C154.469 33.9538 154.794 33.6995 155.184 33.5723C155.574 33.4451 155.964 33.3815 156.354 33.3815C156.939 33.3815 157.394 33.5723 157.719 33.8266C158.044 34.081 158.174 34.5261 158.174 35.0983V35.4798H156.094C155.184 35.4798 154.599 35.6706 154.209 35.9885C153.819 36.3064 153.624 36.7515 153.624 37.3237C153.624 37.896 153.819 38.2775 154.209 38.659C154.664 38.9769 155.184 39.1677 155.964 39.1677C156.484 39.1677 156.939 39.0405 157.329 38.9133C157.719 38.7226 157.979 38.4683 158.174 38.1503V39.1041H159.02V35.1619C159.02 34.3353 158.825 33.7631 158.369 33.318C157.914 32.8729 157.264 32.6821 156.419 32.6821ZM158.174 37.133C157.979 37.5781 157.719 37.8324 157.394 38.0868C157.069 38.2775 156.614 38.4047 156.094 38.4047C155.574 38.4047 155.184 38.2775 154.859 38.0868C154.599 37.896 154.404 37.5781 154.404 37.1966C154.404 36.4336 154.989 36.0521 156.094 36.0521H158.109L158.174 37.133Z" fill="black"/>
<path d="M161.555 33.2544C161.035 33.6359 160.84 34.2081 160.84 34.844C160.84 35.3526 160.97 35.7977 161.23 36.1157C161.49 36.4336 161.88 36.6879 162.4 36.8151L160.775 38.9769H161.75L163.245 36.8787H163.44H165.456V38.9769H166.236V32.6821H163.505C162.725 32.7457 162.075 32.8729 161.555 33.2544ZM165.456 33.5087V36.37H163.505C162.27 36.37 161.685 35.8613 161.685 34.9711C161.685 34.0174 162.27 33.5723 163.57 33.5723H165.456V33.5087Z" fill="black"/>
<path d="M35.1714 48.0694L56.1703 27.4682L42.1277 13.7341L35.1714 48.0694Z" fill="#D3AF90"/>
<path d="M28.0853 0L7.08643 20.6012L42.1279 13.7341L28.0853 0Z" fill="#D3AF90"/>
<path d="M14.0425 41.2658L28.0851 54.9999L35.1714 48.0693L25.8097 38.9768L14.0425 41.2658Z" fill="#BC5B5B"/>
<path d="M7.08632 20.6011L0 27.4681L14.0426 41.2658L16.4481 29.7571L7.08632 20.6011Z" fill="#BC5B5B"/>
<path d="M42.1279 13.7341L7.08643 20.6012L16.4482 29.7573L42.1279 13.7341Z" fill="white"/>
<path d="M25.8096 38.9769L35.1713 48.0694L42.1276 13.7341L25.8096 38.9769Z" fill="white"/>
<path d="M42.1277 13.7341L14.0425 41.2659L25.8097 38.9769L42.1277 13.7341Z" fill="#254C68"/>
<path d="M16.4479 29.7573L14.0425 41.2659L42.1277 13.7341L16.4479 29.7573Z" fill="#143547"/>
</svg>
