<svg width="116" height="54" viewBox="0 0 116 54" fill="none" xmlns="http://www.w3.org/2000/svg">
<path d="M103.715 45.2943L99.5215 41.1487L95.4302 45.2943L99.5215 54.0001L103.715 45.2943Z" fill="#ED5338"/>
<path d="M99.5215 17.2078C97.9872 17.2078 96.6575 18.4514 96.6575 20.1097C96.6575 21.6643 97.8849 23.0116 99.5215 23.0116C101.056 23.0116 102.385 21.7679 102.385 20.1097C102.385 18.5551 101.158 17.2078 99.5215 17.2078Z" fill="#C59368"/>
<path d="M103.204 32.0282L99.5215 28.2972L95.8393 32.0282C95.6348 31.51 93.18 24.7734 93.18 20.4205C93.18 14.5131 99.0101 11.1966 99.5215 10.9893C99.9307 11.1966 105.863 14.5131 105.863 20.4205C105.863 24.7734 103.408 31.51 103.204 32.0282ZM99.5215 4.25269C98.601 4.66725 87.2476 10.782 87.2476 20.5242C87.2476 28.8154 93.896 41.4595 93.896 41.4595L99.4192 35.8629L104.943 41.4595C104.943 41.4595 111.591 28.8154 111.591 20.5242C111.795 10.782 100.442 4.66725 99.5215 4.25269Z" fill="#C59368"/>
<path d="M111.806 -0.000106949L107.61 4.24976L111.805 8.50082L116 4.25096L111.806 -0.000106949Z" fill="#C59368"/>
<path d="M72.3141 8.29468C72.2118 9.22744 71.905 9.642 71.2913 9.642C70.5753 9.642 70.2684 9.22744 70.1662 8.29468H66.5862C66.6885 10.8857 68.2228 12.7512 71.2913 12.7512C74.1552 12.7512 75.7917 10.8857 75.894 8.29468H72.3141Z" fill="#562212"/>
<path d="M64.9498 26.2244V13.7876H69.0411C69.0411 13.7876 69.0411 19.1769 69.0411 19.5914C69.0411 20.006 68.9388 20.5242 68.9388 20.5242H69.1434L73.6438 13.8912H77.5306V26.328H73.4393V20.5242C73.4393 20.1096 73.5415 19.6951 73.5415 19.6951H73.337L68.8365 26.328L64.9498 26.2244Z" fill="#562212"/>
<path d="M56.4602 22.7007C57.9945 22.7007 58.915 21.5606 58.915 20.006C58.915 18.4514 57.8922 17.3114 56.4602 17.3114C55.0283 17.3114 54.0054 18.4514 54.0054 20.006C54.0054 21.5606 55.0283 22.7007 56.4602 22.7007ZM56.4602 13.5803C60.347 13.5803 63.2109 16.3786 63.2109 20.1096C63.2109 23.8407 60.347 26.639 56.4602 26.639C52.5735 26.639 49.7095 23.8407 49.7095 20.1096C49.7095 16.3786 52.6757 13.5803 56.4602 13.5803Z" fill="#562212"/>
<path d="M44.8 13.8912C44.8 13.8912 41.3224 18.4514 41.2201 18.555C41.0156 18.7623 41.0156 18.866 41.0156 18.866H40.9133C40.9133 18.866 40.9133 18.7623 40.7087 18.555C40.5041 18.2441 36.9242 13.8912 36.9242 13.8912H33.6512V26.328H37.6402V21.146C37.6402 20.6278 37.5379 20.2133 37.5379 20.2133H37.7425L40.9133 23.8407H41.1179L44.0841 20.1096H44.2886C44.2886 20.1096 44.1863 20.4206 44.1863 21.0424V26.2244H48.0731V13.7876H44.8V13.8912Z" fill="#562212"/>
<path d="M6.44384 39.3868C7.56895 39.3868 8.59178 38.9722 9.30776 38.1431C10.0237 37.314 10.4329 36.3812 10.4329 35.1375C10.4329 32.6502 9.00091 30.8883 6.54612 30.8883C5.421 30.8883 4.50046 31.1992 3.78447 31.821C3.06849 32.4429 2.55708 33.1684 2.35251 34.1011C2.35251 37.314 3.98904 39.3868 6.44384 39.3868ZM11.558 23.3226C11.1489 23.9444 10.6374 24.359 10.0237 24.5662C9.41004 24.7735 8.59178 24.9808 7.77352 25.0844C6.85297 25.1881 6.13699 25.499 5.421 25.8099C3.57991 26.639 2.55708 28.6082 2.35251 31.821H2.45479C3.06849 30.0592 5.01187 28.9191 7.05753 28.9191C10.5352 28.9191 12.7854 31.3028 12.7854 35.1375C12.7854 36.8994 12.1717 38.454 11.0466 39.6977C9.81918 40.8377 8.28493 41.4596 6.44384 41.4596C4.50046 41.4596 2.86393 40.7341 1.73881 39.3868C0.613699 37.9358 0 36.0703 0 33.6866C0 28.2973 1.53425 24.9808 4.50046 23.6335C5.21644 23.3226 6.0347 23.1153 6.85297 22.908C8.59178 22.5971 9.51233 22.3898 10.2283 21.457L11.558 23.3226Z" fill="#562212"/>
<path d="M16.7745 41.1487H14.6265V28.7119H16.7745V37.9359L23.832 28.7119H25.9799V41.1487H23.832V31.9248L16.7745 41.1487Z" fill="#562212"/>
<path d="M29.7644 40.9413C28.7416 40.6304 28.0256 40.2159 27.6165 39.6977L28.7416 38.0394C29.7644 38.8685 31.1964 39.3867 32.3215 39.3867C34.1626 39.3867 35.4923 38.5576 35.4923 37.3139C35.4923 36.2775 34.5717 35.7593 33.1397 35.7593H31.0941V33.9974H33.0375C34.2649 33.9974 35.1854 33.272 35.1854 32.2356C35.1854 31.0955 34.1626 30.4737 32.526 30.4737C31.1964 30.4737 29.969 30.9919 28.8439 31.821L28.0256 30.0591C29.0484 29.0227 30.8895 28.4009 32.8329 28.4009C35.7991 28.4009 37.4356 29.6446 37.4356 31.7174C37.4356 33.1683 36.7196 34.1011 35.2877 34.6193V34.7229C36.9242 34.9302 37.8448 36.1739 37.8448 37.6248C37.8448 39.9049 35.6968 41.3559 32.6283 41.3559C31.7078 41.4595 30.7872 41.2523 29.7644 40.9413Z" fill="#562212"/>
<path d="M48.9936 41.1487V35.8631H42.1406V41.1487H39.9927V28.7119H42.1406V33.7903H48.9936V28.7119H51.1415V41.1487H48.9936Z" fill="#562212"/>
<path d="M55.4375 33.7902H62.9041C62.8018 31.7174 61.4722 30.4737 59.3242 30.4737C57.1763 30.5773 55.642 31.9246 55.4375 33.7902ZM64.2338 39.8013C63.1087 40.8377 61.4722 41.4595 59.6311 41.4595C57.6877 41.4595 56.0512 40.8377 54.8238 39.6976C53.5964 38.5576 52.9827 36.8994 52.9827 34.9302C52.9827 33.0647 53.5964 31.5101 54.7215 30.2664C55.8466 29.0227 57.3808 28.4009 59.3242 28.4009C60.9607 28.4009 62.2904 28.9191 63.4155 29.9555C64.5407 30.9919 65.0521 32.3392 65.0521 33.9974C65.0521 34.6193 64.9498 35.0338 64.9498 35.4484H55.5397C55.7443 37.7285 57.3808 39.1794 59.8356 39.1794C61.4722 39.1794 62.6996 38.7649 63.6201 37.8321L64.2338 39.8013Z" fill="#562212"/>
<path d="M77.9397 39.3869C76.9168 40.7342 75.178 41.4597 73.2346 41.4597C71.2913 41.4597 69.6547 40.8378 68.4273 39.6978C67.1999 38.5577 66.5862 36.8995 66.5862 34.9303C66.5862 33.0648 67.1999 31.6138 68.3251 30.3702C69.4502 29.1265 70.9844 28.5046 72.7232 28.5046C74.8712 28.5046 76.5077 29.0228 77.5305 30.1629L76.5077 31.9248C75.5872 31.0956 74.462 30.5774 73.0301 30.5774C71.905 30.5774 70.8821 30.992 70.0639 31.8211C69.2456 32.6502 68.8365 33.6866 68.8365 34.9303C68.8365 36.2776 69.2456 37.314 70.0639 38.1432C70.8821 38.9723 72.0072 39.3869 73.2346 39.3869C74.6666 39.3869 75.7917 38.8687 76.7123 37.8323L77.9397 39.3869Z" fill="#562212"/>
</svg>
