<svg width="24" height="24" viewBox="0 0 24 24" fill="none" xmlns="http://www.w3.org/2000/svg">
<path d="M14 1C16.3869 1 18.6761 1.94821 20.364 3.63604C22.0518 5.32387 23 7.61305 23 10" stroke="black" stroke-width="2" stroke-miterlimit="10" stroke-linecap="square"/>
<path d="M14 5C15.3261 5 16.5979 5.52678 17.5355 6.46447C18.4732 7.40215 19 8.67392 19 10" stroke="black" stroke-width="2" stroke-miterlimit="10" stroke-linecap="square"/>
<path d="M15.5205 14.4701L13.809 16.6096C11.1582 15.0517 8.94909 12.8427 7.39099 10.1921L9.53049 8.48056C9.78119 8.2798 9.95836 8.00167 10.0343 7.68961C10.1103 7.37754 10.0808 7.0491 9.95049 6.75556L7.99999 2.36406C7.8602 2.04901 7.61304 1.79385 7.30258 1.64412C6.99213 1.49439 6.63858 1.45981 6.30499 1.54656L2.593 2.50956C2.24657 2.60007 1.94538 2.81452 1.74651 3.11227C1.54764 3.41003 1.46491 3.77039 1.514 4.12506C2.16552 8.76438 4.30969 13.0655 7.62238 16.3782C10.9351 19.6909 15.2362 21.835 19.8755 22.4866C20.2301 22.5355 20.5903 22.4527 20.888 22.2539C21.1856 22.055 21.4 21.7539 21.4905 21.4076L22.4535 17.6951C22.5401 17.3615 22.5055 17.0081 22.3559 16.6977C22.2062 16.3873 21.9513 16.1401 21.6365 16.0001L17.2455 14.0501C16.952 13.9196 16.6235 13.8901 16.3114 13.9661C15.9993 14.0421 15.7212 14.2193 15.5205 14.4701V14.4701Z" stroke="black" stroke-width="2" stroke-miterlimit="10" stroke-linecap="square"/>
</svg>
