<svg width="20" height="20" viewBox="0 0 20 20" fill="none" xmlns="http://www.w3.org/2000/svg">
<path d="M12.9341 12.0583L11.5078 13.8413C9.29884 12.543 7.45792 10.7022 6.1595 8.49335L7.94242 7.0671C8.15133 6.89979 8.29897 6.66802 8.36229 6.40797C8.42561 6.14791 8.40104 5.87421 8.29242 5.62959L6.667 1.97001C6.55051 1.70746 6.34453 1.49484 6.08582 1.37006C5.82711 1.24528 5.53248 1.21647 5.2545 1.28876L2.16117 2.09126C1.87247 2.16669 1.62148 2.3454 1.45576 2.59352C1.29004 2.84165 1.22109 3.14195 1.262 3.43751C1.80493 7.30361 3.59175 10.8879 6.35232 13.6484C9.11289 16.409 12.6971 18.1958 16.5632 18.7388C16.8587 18.7796 17.1589 18.7106 17.407 18.5448C17.655 18.3791 17.8337 18.1282 17.9091 17.8396L18.7116 14.7458C18.7837 14.4679 18.7549 14.1734 18.6302 13.9147C18.5055 13.6561 18.2931 13.45 18.0307 13.3333L14.3716 11.7083C14.127 11.5997 13.8533 11.575 13.5932 11.6384C13.3331 11.7017 13.1013 11.8494 12.9341 12.0583V12.0583Z" stroke="#EB5440" stroke-width="1.5" stroke-miterlimit="10" stroke-linecap="square"/>
</svg>
