<svg width="48" height="48" viewBox="0 0 48 48" fill="none" xmlns="http://www.w3.org/2000/svg">
<path d="M31.041 28.9399L27.618 33.2189C22.3164 30.1031 17.8982 25.6852 14.782 20.3839L19.061 16.9609C19.5624 16.5593 19.9167 16.0031 20.0687 15.379C20.2206 14.7548 20.1617 14.098 19.901 13.5109L16 4.72788C15.7204 4.09777 15.2261 3.58746 14.6052 3.288C13.9843 2.98853 13.2772 2.91938 12.61 3.09288L5.18599 5.01888C4.49313 5.1999 3.89076 5.6288 3.49302 6.22431C3.09528 6.81981 2.92982 7.54053 3.02799 8.24988C4.33104 17.5285 8.61938 26.1307 15.2448 32.7561C21.8701 39.3815 30.4723 43.6698 39.751 44.9729C40.4602 45.0708 41.1807 44.9052 41.776 44.5075C42.3712 44.1098 42.8 43.5075 42.981 42.8149L44.907 35.3899C45.0801 34.7228 45.0109 34.016 44.7117 33.3952C44.4125 32.7744 43.9027 32.28 43.273 31.9999L34.491 28.0999C33.9039 27.839 33.247 27.78 32.6228 27.9319C31.9987 28.0839 31.4424 28.4383 31.041 28.9399V28.9399Z" stroke="#EB5440" stroke-width="2" stroke-miterlimit="10" stroke-linecap="square"/>
</svg>
