<svg width="24" height="24" viewBox="0 0 24 24" fill="none" xmlns="http://www.w3.org/2000/svg">
<path d="M14 1C16.3869 1 18.6761 1.94821 20.364 3.63604C22.0518 5.32387 23 7.61305 23 10" stroke="white" stroke-width="2" stroke-miterlimit="10" stroke-linecap="square"/>
<path d="M14 5C15.3261 5 16.5979 5.52678 17.5355 6.46447C18.4732 7.40215 19 8.67392 19 10" stroke="white" stroke-width="2" stroke-miterlimit="10" stroke-linecap="square"/>
<path d="M15.5205 14.47L13.809 16.6095C11.1582 15.0516 8.94909 12.8427 7.39099 10.192L9.53049 8.4805C9.78119 8.27973 9.95836 8.00161 10.0343 7.68955C10.1103 7.37748 10.0808 7.04904 9.95049 6.7555L7.99999 2.364C7.8602 2.04894 7.61304 1.79379 7.30258 1.64406C6.99213 1.49433 6.63858 1.45975 6.30499 1.5465L2.593 2.5095C2.24657 2.60001 1.94538 2.81446 1.74651 3.11221C1.54764 3.40996 1.46491 3.77033 1.514 4.125C2.16552 8.76432 4.30969 13.0654 7.62238 16.3781C10.9351 19.6908 15.2362 21.835 19.8755 22.4865C20.2301 22.5355 20.5903 22.4527 20.888 22.2538C21.1856 22.0549 21.4 21.7538 21.4905 21.4075L22.4535 17.695C22.5401 17.3615 22.5055 17.0081 22.3559 16.6977C22.2062 16.3873 21.9513 16.14 21.6365 16L17.2455 14.05C16.952 13.9196 16.6235 13.89 16.3114 13.966C15.9993 14.042 15.7212 14.2192 15.5205 14.47V14.47Z" stroke="white" stroke-width="2" stroke-miterlimit="10" stroke-linecap="square"/>
</svg>
