<svg width="48" height="48" viewBox="0 0 48 48" fill="none" xmlns="http://www.w3.org/2000/svg">
<rect width="48" height="48" fill="white"/>
<path d="M38 45H10.1092V38.911L20.1248 28.4039C23.0903 25.2508 25.0279 23.0701 25.9376 21.8618C26.8473 20.6345 27.5023 19.5017 27.9025 18.4632C28.3028 17.4248 28.5029 16.3486 28.5029 15.2347C28.5029 13.5732 28.0572 12.3365 27.1657 11.5246C26.2924 10.7127 25.1189 10.3068 23.6452 10.3068C22.0988 10.3068 20.5978 10.675 19.1423 11.4113C17.6868 12.1477 16.1676 13.1955 14.5848 14.555L10 8.91908C11.9649 7.18206 13.5932 5.95482 14.885 5.23736C16.1767 4.51989 17.5867 3.97235 19.115 3.59474C20.6433 3.19825 22.3535 3 24.2456 3C26.7381 3 28.9396 3.47202 30.8499 4.41605C32.7602 5.36008 34.243 6.68173 35.2982 8.38098C36.3535 10.0802 36.8811 12.0249 36.8811 14.2151C36.8811 16.122 36.5536 17.9157 35.8986 19.5961C35.2619 21.2576 34.2612 22.9663 32.8967 24.7222C31.5504 26.4781 29.167 28.9798 25.7466 32.2272L20.616 37.2401V37.6365H38V45Z" stroke="#EB5440" stroke-width="2"/>
</svg>
